<svg id="Layer_1" data-name="Layer 1" xmlns="http://www.w3.org/2000/svg" viewBox="0 0 1018 602"><defs><style>.cls-1{fill:#ea5454;}</style></defs><path class="cls-1" d="M867,1h0a150,150,0,0,0-139,93.47A149.57,149.57,0,0,0,632.57,16.3h0A150,150,0,0,0,448.85,122.36l-5.65,21.1A149.45,149.45,0,0,0,376,61.26h0a150,150,0,0,0-204.9,54.91L21.12,376A150,150,0,0,0,76,580.88h0A150,150,0,0,0,280.93,526l111.55-193.2-21.27,79.37A150,150,0,0,0,477.27,595.85h0A150,150,0,0,0,661,489.79l56-209V451A150,150,0,0,0,867,601h0a150,150,0,0,0,150-150V151A150,150,0,0,0,867,1Z"/></svg>