<!DOCTYPE svg PUBLIC "-//W3C//DTD SVG 1.1//EN" "http://www.w3.org/Graphics/SVG/1.1/DTD/svg11.dtd">
<!-- Uploaded to: SVG Repo, www.svgrepo.com, Transformed by: SVG Repo Mixer Tools -->
<svg fill="#4ac1c9" width="800px" height="800px" viewBox="0 0 1024 1024" xmlns="http://www.w3.org/2000/svg" class="icon" stroke="#4ac1c9">
<g id="SVGRepo_bgCarrier" stroke-width="0"/>
<g id="SVGRepo_tracerCarrier" stroke-linecap="round" stroke-linejoin="round"/>
<g id="SVGRepo_iconCarrier"> <path d="M136 384h56c4.4 0 8-3.6 8-8V200h176c4.4 0 8-3.6 8-8v-56c0-4.4-3.6-8-8-8H196c-37.6 0-68 30.4-68 68v180c0 4.4 3.6 8 8 8zm512-184h176v176c0 4.4 3.6 8 8 8h56c4.4 0 8-3.6 8-8V196c0-37.6-30.4-68-68-68H648c-4.4 0-8 3.6-8 8v56c0 4.4 3.6 8 8 8zM376 824H200V648c0-4.4-3.6-8-8-8h-56c-4.4 0-8 3.6-8 8v180c0 37.6 30.4 68 68 68h180c4.4 0 8-3.6 8-8v-56c0-4.4-3.6-8-8-8zm512-184h-56c-4.4 0-8 3.6-8 8v176H648c-4.4 0-8 3.6-8 8v56c0 4.4 3.6 8 8 8h180c37.6 0 68-30.4 68-68V648c0-4.4-3.6-8-8-8zm16-164H120c-4.4 0-8 3.6-8 8v56c0 4.4 3.6 8 8 8h784c4.4 0 8-3.6 8-8v-56c0-4.4-3.6-8-8-8z"/> </g>
</svg>